<svg width="312" height="281" viewBox="0 0 312 281" fill="none" xmlns="http://www.w3.org/2000/svg">
<path fill-rule="evenodd" clip-rule="evenodd" d="M406.025 131.985C405.676 108.942 339.448 66.4794 322.801 50.5583C312.551 40.7556 243.992 -7.4894 229.603 1.22556C207.158 14.8203 243.204 45.8375 248.325 58.0511C249.725 61.3901 258.51 73.1865 256.154 73.6846C241.487 76.7819 123.71 29.2677 117.998 64.1572C114.343 86.4862 154.342 138.488 151.392 151.422C150.602 154.887 114.363 158.933 106.055 159.854C77.8406 162.981 1.97399 181.959 0.247281 187.768C-4.05846 202.25 198.683 300.457 216.357 276.666C233.101 254.126 200.035 203.265 199.527 174.049C199.309 161.536 328.258 229.091 343.414 195.679C347.546 186.573 304.54 144.661 294.031 135.831C293.498 135.383 286.414 129.66 287.326 128.223C291.122 122.25 324.443 134.034 347.286 139.015C368.034 143.54 406.224 145.175 406.025 131.985Z" fill="#FFBA03"/>
</svg>
